<svg width="152" height="28" viewBox="0 0 152 28" fill="none" xmlns="http://www.w3.org/2000/svg">
<path d="M14.0205 0.505371L17.0503 9.83008H26.8548L18.9228 15.5931L21.9526 24.9178L14.0205 19.1548L6.08841 24.9178L9.11819 15.5931L1.18612 9.83008H10.9907L14.0205 0.505371Z" fill="#FFC042"/>
<path d="M45.0102 0.505371L48.04 9.83008H57.8446L49.9125 15.5931L52.9423 24.9178L45.0102 19.1548L37.0782 24.9178L40.1079 15.5931L32.1759 9.83008H41.9804L45.0102 0.505371Z" fill="#FFC042"/>
<path d="M76 0.505371L79.0298 9.83008H88.8343L80.9023 15.5931L83.932 24.9178L76 19.1548L68.0679 24.9178L71.0977 15.5931L63.1656 9.83008H72.9702L76 0.505371Z" fill="#FFC042"/>
<path d="M106.99 0.505371L110.02 9.83008H119.824L111.892 15.5931L114.922 24.9178L106.99 19.1548L99.0576 24.9178L102.087 15.5931L94.1554 9.83008H103.96L106.99 0.505371Z" fill="#D0CFD4"/>
<path d="M137.979 0.505371L141.009 9.83008H150.814L142.882 15.5931L145.912 24.9178L137.979 19.1548L130.047 24.9178L133.077 15.5931L125.145 9.83008H134.95L137.979 0.505371Z" fill="#D0CFD4"/>
</svg>
